<svg xmlns="http://www.w3.org/2000/svg" viewBox="0 0 64 64" fill="none">
  <!-- Microchip/Processor Icon for J.A.R.V.I.S. -->

  <!-- Main chip body - rounded square -->
  <rect x="16" y="16" width="32" height="32" rx="4" ry="4" stroke="#4A90D9" stroke-width="3" fill="none"/>

  <!-- Inner square (processor core) -->
  <rect x="24" y="24" width="16" height="16" rx="2" ry="2" stroke="#4A90D9" stroke-width="3" fill="none"/>

  <!-- Top pins -->
  <line x1="24" y1="16" x2="24" y2="6" stroke="#4A90D9" stroke-width="2.5" stroke-linecap="round"/>
  <line x1="32" y1="16" x2="32" y2="6" stroke="#4A90D9" stroke-width="2.5" stroke-linecap="round"/>
  <line x1="40" y1="16" x2="40" y2="6" stroke="#4A90D9" stroke-width="2.5" stroke-linecap="round"/>

  <!-- Bottom pins -->
  <line x1="24" y1="48" x2="24" y2="58" stroke="#4A90D9" stroke-width="2.5" stroke-linecap="round"/>
  <line x1="32" y1="48" x2="32" y2="58" stroke="#4A90D9" stroke-width="2.5" stroke-linecap="round"/>
  <line x1="40" y1="48" x2="40" y2="58" stroke="#4A90D9" stroke-width="2.5" stroke-linecap="round"/>

  <!-- Left pins -->
  <line x1="16" y1="24" x2="6" y2="24" stroke="#4A90D9" stroke-width="2.5" stroke-linecap="round"/>
  <line x1="16" y1="32" x2="6" y2="32" stroke="#4A90D9" stroke-width="2.5" stroke-linecap="round"/>
  <line x1="16" y1="40" x2="6" y2="40" stroke="#4A90D9" stroke-width="2.5" stroke-linecap="round"/>

  <!-- Right pins -->
  <line x1="48" y1="24" x2="58" y2="24" stroke="#4A90D9" stroke-width="2.5" stroke-linecap="round"/>
  <line x1="48" y1="32" x2="58" y2="32" stroke="#4A90D9" stroke-width="2.5" stroke-linecap="round"/>
  <line x1="48" y1="40" x2="58" y2="40" stroke="#4A90D9" stroke-width="2.5" stroke-linecap="round"/>
</svg>
